<mxfile host="app.diagrams.net" modified="2023-07-10T15:29:30.237Z" agent="Mozilla/5.0 (Windows NT 10.0; Win64; x64) AppleWebKit/537.36 (KHTML, like Gecko) Chrome/114.0.0.0 Safari/537.36" etag="mIMrmbyV-mGgAoJLL8zp" version="21.6.1" type="device" pages="2">
  <diagram name="전투순서도" id="vgJyZl-CulnpT6mk6Zz5">
    <mxGraphModel dx="1604" dy="1155" grid="1" gridSize="10" guides="1" tooltips="1" connect="1" arrows="1" fold="1" page="1" pageScale="1" pageWidth="827" pageHeight="1169" math="0" shadow="0">
      <root>
        <mxCell id="0" />
        <mxCell id="1" parent="0" />
        <mxCell id="RcMaPdA1Xy1a8qauvd1--1" value="전투시작" style="rounded=1;whiteSpace=wrap;html=1;arcSize=50;" vertex="1" parent="1">
          <mxGeometry x="290" width="210" height="60" as="geometry" />
        </mxCell>
        <mxCell id="RcMaPdA1Xy1a8qauvd1--3" value="플레이어/적 스테이터스 불러오기" style="rounded=0;whiteSpace=wrap;html=1;" vertex="1" parent="1">
          <mxGeometry x="290" y="100" width="210" height="60" as="geometry" />
        </mxCell>
        <mxCell id="RcMaPdA1Xy1a8qauvd1--5" value="전투선택지입력" style="shape=parallelogram;perimeter=parallelogramPerimeter;whiteSpace=wrap;html=1;fixedSize=1;" vertex="1" parent="1">
          <mxGeometry x="290" y="300" width="210" height="60" as="geometry" />
        </mxCell>
        <mxCell id="RcMaPdA1Xy1a8qauvd1--6" value="방어인가?" style="rhombus;whiteSpace=wrap;html=1;" vertex="1" parent="1">
          <mxGeometry x="290" y="400" width="210" height="80" as="geometry" />
        </mxCell>
        <mxCell id="RcMaPdA1Xy1a8qauvd1--7" value="" style="endArrow=classic;html=1;rounded=0;exitX=0.5;exitY=1;exitDx=0;exitDy=0;entryX=0.5;entryY=0;entryDx=0;entryDy=0;" edge="1" parent="1" source="RcMaPdA1Xy1a8qauvd1--1" target="RcMaPdA1Xy1a8qauvd1--3">
          <mxGeometry width="50" height="50" relative="1" as="geometry">
            <mxPoint x="389" y="100" as="sourcePoint" />
            <mxPoint x="439" y="50" as="targetPoint" />
          </mxGeometry>
        </mxCell>
        <mxCell id="RcMaPdA1Xy1a8qauvd1--8" value="" style="endArrow=classic;html=1;rounded=0;exitX=0.5;exitY=1;exitDx=0;exitDy=0;entryX=0.5;entryY=0;entryDx=0;entryDy=0;" edge="1" parent="1" source="RcMaPdA1Xy1a8qauvd1--3">
          <mxGeometry width="50" height="50" relative="1" as="geometry">
            <mxPoint x="390" y="320" as="sourcePoint" />
            <mxPoint x="395" y="200" as="targetPoint" />
          </mxGeometry>
        </mxCell>
        <mxCell id="RcMaPdA1Xy1a8qauvd1--9" value="공격인가?" style="rhombus;whiteSpace=wrap;html=1;" vertex="1" parent="1">
          <mxGeometry x="580" y="400" width="210" height="80" as="geometry" />
        </mxCell>
        <mxCell id="RcMaPdA1Xy1a8qauvd1--10" value="다음 계산식에 방어계산식 적용" style="rounded=0;whiteSpace=wrap;html=1;" vertex="1" parent="1">
          <mxGeometry x="290" y="584" width="210" height="60" as="geometry" />
        </mxCell>
        <mxCell id="RcMaPdA1Xy1a8qauvd1--12" value="차례를 마침" style="rounded=0;whiteSpace=wrap;html=1;" vertex="1" parent="1">
          <mxGeometry x="290" y="1120" width="210" height="60" as="geometry" />
        </mxCell>
        <mxCell id="RcMaPdA1Xy1a8qauvd1--13" value="적이 사망했는가" style="rhombus;whiteSpace=wrap;html=1;" vertex="1" parent="1">
          <mxGeometry x="580" y="730" width="210" height="80" as="geometry" />
        </mxCell>
        <mxCell id="RcMaPdA1Xy1a8qauvd1--14" value="방어 계산식으로 공격" style="rounded=0;whiteSpace=wrap;html=1;" vertex="1" parent="1">
          <mxGeometry x="580" y="630" width="210" height="60" as="geometry" />
        </mxCell>
        <mxCell id="RcMaPdA1Xy1a8qauvd1--15" value="적이 방어중인가?" style="rhombus;whiteSpace=wrap;html=1;" vertex="1" parent="1">
          <mxGeometry x="580" y="514.5" width="210" height="80" as="geometry" />
        </mxCell>
        <mxCell id="RcMaPdA1Xy1a8qauvd1--16" value="일반 계산식으로 공격" style="rounded=0;whiteSpace=wrap;html=1;" vertex="1" parent="1">
          <mxGeometry x="827" y="630" width="210" height="60" as="geometry" />
        </mxCell>
        <mxCell id="RcMaPdA1Xy1a8qauvd1--17" value="" style="endArrow=classic;html=1;rounded=0;exitX=0.5;exitY=1;exitDx=0;exitDy=0;entryX=0.5;entryY=0;entryDx=0;entryDy=0;" edge="1" parent="1" source="RcMaPdA1Xy1a8qauvd1--5" target="RcMaPdA1Xy1a8qauvd1--6">
          <mxGeometry width="50" height="50" relative="1" as="geometry">
            <mxPoint x="350" y="580" as="sourcePoint" />
            <mxPoint x="410" y="390" as="targetPoint" />
          </mxGeometry>
        </mxCell>
        <mxCell id="RcMaPdA1Xy1a8qauvd1--18" value="" style="endArrow=classic;html=1;rounded=0;exitX=1;exitY=0.5;exitDx=0;exitDy=0;entryX=0;entryY=0.5;entryDx=0;entryDy=0;" edge="1" parent="1" source="RcMaPdA1Xy1a8qauvd1--6" target="RcMaPdA1Xy1a8qauvd1--9">
          <mxGeometry width="50" height="50" relative="1" as="geometry">
            <mxPoint x="405" y="370" as="sourcePoint" />
            <mxPoint x="405" y="410" as="targetPoint" />
          </mxGeometry>
        </mxCell>
        <mxCell id="RcMaPdA1Xy1a8qauvd1--19" value="" style="endArrow=classic;html=1;rounded=0;exitX=0.5;exitY=1;exitDx=0;exitDy=0;entryX=0.5;entryY=0;entryDx=0;entryDy=0;" edge="1" parent="1" source="RcMaPdA1Xy1a8qauvd1--6" target="RcMaPdA1Xy1a8qauvd1--10">
          <mxGeometry width="50" height="50" relative="1" as="geometry">
            <mxPoint x="510" y="450" as="sourcePoint" />
            <mxPoint x="590" y="450" as="targetPoint" />
          </mxGeometry>
        </mxCell>
        <mxCell id="RcMaPdA1Xy1a8qauvd1--20" value="" style="endArrow=classic;html=1;rounded=0;exitX=0.5;exitY=1;exitDx=0;exitDy=0;entryX=0.5;entryY=0;entryDx=0;entryDy=0;" edge="1" parent="1" source="RcMaPdA1Xy1a8qauvd1--9" target="RcMaPdA1Xy1a8qauvd1--15">
          <mxGeometry width="50" height="50" relative="1" as="geometry">
            <mxPoint x="405" y="490" as="sourcePoint" />
            <mxPoint x="405" y="535" as="targetPoint" />
          </mxGeometry>
        </mxCell>
        <mxCell id="RcMaPdA1Xy1a8qauvd1--21" value="" style="endArrow=classic;html=1;rounded=0;exitX=0.5;exitY=1;exitDx=0;exitDy=0;entryX=0.5;entryY=0;entryDx=0;entryDy=0;" edge="1" parent="1" source="RcMaPdA1Xy1a8qauvd1--10" target="RcMaPdA1Xy1a8qauvd1--12">
          <mxGeometry width="50" height="50" relative="1" as="geometry">
            <mxPoint x="695" y="490" as="sourcePoint" />
            <mxPoint x="695" y="525" as="targetPoint" />
          </mxGeometry>
        </mxCell>
        <mxCell id="RcMaPdA1Xy1a8qauvd1--22" value="" style="endArrow=classic;html=1;rounded=0;exitX=0.5;exitY=1;exitDx=0;exitDy=0;entryX=0.5;entryY=0;entryDx=0;entryDy=0;" edge="1" parent="1" source="RcMaPdA1Xy1a8qauvd1--15" target="RcMaPdA1Xy1a8qauvd1--14">
          <mxGeometry width="50" height="50" relative="1" as="geometry">
            <mxPoint x="695" y="490" as="sourcePoint" />
            <mxPoint x="695" y="525" as="targetPoint" />
          </mxGeometry>
        </mxCell>
        <mxCell id="RcMaPdA1Xy1a8qauvd1--23" value="" style="endArrow=classic;html=1;rounded=0;exitX=1;exitY=0.5;exitDx=0;exitDy=0;entryX=0.5;entryY=0;entryDx=0;entryDy=0;" edge="1" parent="1" source="RcMaPdA1Xy1a8qauvd1--15" target="RcMaPdA1Xy1a8qauvd1--16">
          <mxGeometry width="50" height="50" relative="1" as="geometry">
            <mxPoint x="720" y="600" as="sourcePoint" />
            <mxPoint x="770" y="550" as="targetPoint" />
            <Array as="points">
              <mxPoint x="932" y="555" />
            </Array>
          </mxGeometry>
        </mxCell>
        <mxCell id="RcMaPdA1Xy1a8qauvd1--24" value="디버프 전처리" style="rounded=0;whiteSpace=wrap;html=1;" vertex="1" parent="1">
          <mxGeometry x="290" y="200" width="210" height="60" as="geometry" />
        </mxCell>
        <mxCell id="RcMaPdA1Xy1a8qauvd1--25" value="" style="endArrow=classic;html=1;rounded=0;exitX=0.5;exitY=1;exitDx=0;exitDy=0;entryX=0.5;entryY=0;entryDx=0;entryDy=0;" edge="1" parent="1" source="RcMaPdA1Xy1a8qauvd1--24" target="RcMaPdA1Xy1a8qauvd1--5">
          <mxGeometry width="50" height="50" relative="1" as="geometry">
            <mxPoint x="420" y="180" as="sourcePoint" />
            <mxPoint x="470" y="130" as="targetPoint" />
          </mxGeometry>
        </mxCell>
        <mxCell id="RcMaPdA1Xy1a8qauvd1--28" value="" style="endArrow=classic;html=1;rounded=0;exitX=1;exitY=0.5;exitDx=0;exitDy=0;entryX=1;entryY=0.5;entryDx=0;entryDy=0;" edge="1" parent="1" source="RcMaPdA1Xy1a8qauvd1--9" target="RcMaPdA1Xy1a8qauvd1--12">
          <mxGeometry width="50" height="50" relative="1" as="geometry">
            <mxPoint x="650" y="620" as="sourcePoint" />
            <mxPoint x="700" y="570" as="targetPoint" />
            <Array as="points">
              <mxPoint x="1120" y="440" />
              <mxPoint x="1120" y="1140" />
            </Array>
          </mxGeometry>
        </mxCell>
        <mxCell id="RcMaPdA1Xy1a8qauvd1--29" value="" style="endArrow=classic;html=1;rounded=0;exitX=0;exitY=0.5;exitDx=0;exitDy=0;" edge="1" parent="1" source="RcMaPdA1Xy1a8qauvd1--13">
          <mxGeometry width="50" height="50" relative="1" as="geometry">
            <mxPoint x="540" y="780" as="sourcePoint" />
            <mxPoint x="400" y="770" as="targetPoint" />
          </mxGeometry>
        </mxCell>
        <mxCell id="RcMaPdA1Xy1a8qauvd1--30" value="" style="endArrow=classic;html=1;rounded=0;exitX=0.5;exitY=1;exitDx=0;exitDy=0;entryX=0.5;entryY=0;entryDx=0;entryDy=0;" edge="1" parent="1" source="RcMaPdA1Xy1a8qauvd1--14" target="RcMaPdA1Xy1a8qauvd1--13">
          <mxGeometry width="50" height="50" relative="1" as="geometry">
            <mxPoint x="760" y="870" as="sourcePoint" />
            <mxPoint x="810" y="820" as="targetPoint" />
          </mxGeometry>
        </mxCell>
        <mxCell id="RcMaPdA1Xy1a8qauvd1--31" value="" style="endArrow=classic;html=1;rounded=0;exitX=0.5;exitY=1;exitDx=0;exitDy=0;entryX=1;entryY=0.5;entryDx=0;entryDy=0;" edge="1" parent="1" source="RcMaPdA1Xy1a8qauvd1--16" target="RcMaPdA1Xy1a8qauvd1--13">
          <mxGeometry width="50" height="50" relative="1" as="geometry">
            <mxPoint x="760" y="870" as="sourcePoint" />
            <mxPoint x="810" y="820" as="targetPoint" />
            <Array as="points">
              <mxPoint x="930" y="770" />
            </Array>
          </mxGeometry>
        </mxCell>
        <mxCell id="RcMaPdA1Xy1a8qauvd1--32" value="전투 종료" style="rounded=1;whiteSpace=wrap;html=1;" vertex="1" parent="1">
          <mxGeometry x="580" y="1060" width="220" height="60" as="geometry" />
        </mxCell>
        <mxCell id="RcMaPdA1Xy1a8qauvd1--33" value="현재 스테이터스 저장" style="rounded=0;whiteSpace=wrap;html=1;" vertex="1" parent="1">
          <mxGeometry x="580" y="850" width="210" height="60" as="geometry" />
        </mxCell>
        <mxCell id="RcMaPdA1Xy1a8qauvd1--34" value="전투승리 메시지 출력" style="shape=document;whiteSpace=wrap;html=1;boundedLbl=1;" vertex="1" parent="1">
          <mxGeometry x="580" y="950" width="210" height="70" as="geometry" />
        </mxCell>
        <mxCell id="RcMaPdA1Xy1a8qauvd1--35" value="" style="endArrow=classic;html=1;rounded=0;exitX=0.5;exitY=1;exitDx=0;exitDy=0;" edge="1" parent="1" source="RcMaPdA1Xy1a8qauvd1--13" target="RcMaPdA1Xy1a8qauvd1--33">
          <mxGeometry width="50" height="50" relative="1" as="geometry">
            <mxPoint x="710" y="930" as="sourcePoint" />
            <mxPoint x="770" y="1060" as="targetPoint" />
          </mxGeometry>
        </mxCell>
        <mxCell id="RcMaPdA1Xy1a8qauvd1--36" value="" style="endArrow=classic;html=1;rounded=0;exitX=0.5;exitY=1;exitDx=0;exitDy=0;entryX=0.5;entryY=0;entryDx=0;entryDy=0;" edge="1" parent="1" source="RcMaPdA1Xy1a8qauvd1--33" target="RcMaPdA1Xy1a8qauvd1--34">
          <mxGeometry width="50" height="50" relative="1" as="geometry">
            <mxPoint x="730" y="960" as="sourcePoint" />
            <mxPoint x="780" y="910" as="targetPoint" />
          </mxGeometry>
        </mxCell>
        <mxCell id="RcMaPdA1Xy1a8qauvd1--37" value="" style="endArrow=classic;html=1;rounded=0;entryX=0.5;entryY=0;entryDx=0;entryDy=0;exitX=0.519;exitY=0.875;exitDx=0;exitDy=0;exitPerimeter=0;" edge="1" parent="1" source="RcMaPdA1Xy1a8qauvd1--34" target="RcMaPdA1Xy1a8qauvd1--32">
          <mxGeometry width="50" height="50" relative="1" as="geometry">
            <mxPoint x="690" y="1010" as="sourcePoint" />
            <mxPoint x="770" y="1060" as="targetPoint" />
          </mxGeometry>
        </mxCell>
        <mxCell id="RcMaPdA1Xy1a8qauvd1--38" value="예" style="text;html=1;strokeColor=none;fillColor=none;align=center;verticalAlign=middle;whiteSpace=wrap;rounded=0;" vertex="1" parent="1">
          <mxGeometry x="400" y="514.5" width="60" height="30" as="geometry" />
        </mxCell>
        <mxCell id="RcMaPdA1Xy1a8qauvd1--39" value="예" style="text;html=1;strokeColor=none;fillColor=none;align=center;verticalAlign=middle;whiteSpace=wrap;rounded=0;" vertex="1" parent="1">
          <mxGeometry x="700" y="480" width="60" height="30" as="geometry" />
        </mxCell>
        <mxCell id="RcMaPdA1Xy1a8qauvd1--41" value="예" style="text;html=1;strokeColor=none;fillColor=none;align=center;verticalAlign=middle;whiteSpace=wrap;rounded=0;" vertex="1" parent="1">
          <mxGeometry x="700" y="594.5" width="60" height="30" as="geometry" />
        </mxCell>
        <mxCell id="RcMaPdA1Xy1a8qauvd1--42" value="예" style="text;html=1;strokeColor=none;fillColor=none;align=center;verticalAlign=middle;whiteSpace=wrap;rounded=0;" vertex="1" parent="1">
          <mxGeometry x="700" y="810" width="60" height="30" as="geometry" />
        </mxCell>
        <mxCell id="RcMaPdA1Xy1a8qauvd1--43" value="아니요" style="text;html=1;strokeColor=none;fillColor=none;align=center;verticalAlign=middle;whiteSpace=wrap;rounded=0;" vertex="1" parent="1">
          <mxGeometry x="510" y="400" width="60" height="30" as="geometry" />
        </mxCell>
        <mxCell id="RcMaPdA1Xy1a8qauvd1--44" value="아니요" style="text;html=1;strokeColor=none;fillColor=none;align=center;verticalAlign=middle;whiteSpace=wrap;rounded=0;" vertex="1" parent="1">
          <mxGeometry x="820" y="400" width="60" height="30" as="geometry" />
        </mxCell>
        <mxCell id="RcMaPdA1Xy1a8qauvd1--45" value="아니요" style="text;html=1;strokeColor=none;fillColor=none;align=center;verticalAlign=middle;whiteSpace=wrap;rounded=0;" vertex="1" parent="1">
          <mxGeometry x="827" y="514.5" width="60" height="30" as="geometry" />
        </mxCell>
        <mxCell id="RcMaPdA1Xy1a8qauvd1--46" value="아니요" style="text;html=1;strokeColor=none;fillColor=none;align=center;verticalAlign=middle;whiteSpace=wrap;rounded=0;" vertex="1" parent="1">
          <mxGeometry x="510" y="730" width="60" height="30" as="geometry" />
        </mxCell>
        <mxCell id="RcMaPdA1Xy1a8qauvd1--47" value="" style="endArrow=classic;html=1;rounded=0;exitX=0;exitY=0.5;exitDx=0;exitDy=0;entryX=0;entryY=0.5;entryDx=0;entryDy=0;" edge="1" parent="1" source="RcMaPdA1Xy1a8qauvd1--12" target="RcMaPdA1Xy1a8qauvd1--24">
          <mxGeometry width="50" height="50" relative="1" as="geometry">
            <mxPoint x="330" y="760" as="sourcePoint" />
            <mxPoint x="280" y="250" as="targetPoint" />
            <Array as="points">
              <mxPoint x="160" y="1150" />
              <mxPoint x="160" y="230" />
            </Array>
          </mxGeometry>
        </mxCell>
      </root>
    </mxGraphModel>
  </diagram>
  <diagram id="uLfocR3QfqaB4pD2IUHt" name="페이지-2">
    <mxGraphModel dx="882" dy="635" grid="1" gridSize="10" guides="1" tooltips="1" connect="1" arrows="1" fold="1" page="1" pageScale="1" pageWidth="827" pageHeight="1169" math="0" shadow="0">
      <root>
        <mxCell id="0" />
        <mxCell id="1" parent="0" />
      </root>
    </mxGraphModel>
  </diagram>
</mxfile>
